<svg xmlns="http://www.w3.org/2000/svg" version="1.1" xmlns:xlink="http://www.w3.org/1999/xlink" width="512" height="512" x="0" y="0" viewBox="0 0 1000 1000" style="enable-background:new 0 0 512 512" xml:space="preserve" class=""><g><path d="M592 430.33c-4 0-6.48-.12-7.07-.15A16 16 0 0 1 569.82 415c-.22-4.09-4.49-100.78 54.26-159.53S779.53 201 783.61 201.23a16 16 0 0 1 15.16 15.16c.21 4.08 4.49 100.77-54.27 159.53-50.34 50.34-128.5 54.41-152.5 54.41zM766.6 233.4c-27.06 1.33-83.77 8.61-119.89 44.73C610.43 314.4 603.23 371 602 398c27-1.33 83.79-8.59 119.93-44.73s43.33-92.8 44.67-119.87zM597.1 627.5c-83.09 0-148.44-71.4-151.18-74.44a16 16 0 0 1 0-21.43c2.74-3 68.09-74.43 151.18-74.43s148.44 71.39 151.18 74.43a16 16 0 0 1 0 21.43c-2.74 3.04-68.09 74.44-151.18 74.44zm-116.41-85.15C500.78 560.54 546 595.5 597.1 595.5c51.3 0 96.41-34.93 116.43-53.13-20.07-18.18-65.33-53.17-116.43-53.17s-96.31 34.95-116.41 53.15z" fill="#f7cb07" opacity="1" data-original="#000000"></path><path d="M457.65 558.2a16 16 0 0 1-10.71-4.12c-3-2.74-74.44-68.09-74.44-151.18s71.4-148.44 74.44-151.18a16 16 0 0 1 21.43 0c3 2.74 74.43 68.09 74.43 151.18s-71.39 148.44-74.43 151.18a16 16 0 0 1-10.72 4.12zm0-271.73c-18.16 20.07-53.15 65.33-53.15 116.43s34.95 96.31 53.15 116.41C475.84 499.22 510.8 454 510.8 402.9c0-51.3-34.93-96.41-53.13-116.43zM436.76 787.84c-83.09 0-148.44-71.4-151.18-74.44a16 16 0 0 1 0-21.43c2.74-3 68.09-74.43 151.18-74.43S585.2 688.93 587.94 692a16 16 0 0 1 0 21.43c-2.74 3.01-68.09 74.41-151.18 74.41zm-116.41-85.15c20.09 18.19 65.34 53.15 116.41 53.15s96.31-35 116.41-53.15c-20.09-18.19-65.33-53.15-116.41-53.15s-96.31 34.95-116.41 53.15z" fill="#f7cb07" opacity="1" data-original="#000000"></path><path d="M297.31 718.54a16 16 0 0 1-10.71-4.12c-3-2.74-74.44-68.09-74.44-151.18s71.4-148.44 74.44-151.18a16 16 0 0 1 21.43 0c3 2.74 74.43 68.09 74.43 151.18S311.07 711.68 308 714.42a16 16 0 0 1-10.69 4.12zm0-271.73c-18.18 20.07-53.17 65.33-53.17 116.43s35 96.31 53.15 116.41c18.19-20.09 53.15-65.34 53.15-116.41.02-51.3-34.91-96.41-53.11-116.43z" fill="#f7cb07" opacity="1" data-original="#000000"></path><path d="M217.1 798.9a16 16 0 0 1-11.31-27.32l368.69-368.69a16 16 0 1 1 22.63 22.63L228.42 794.21a16 16 0 0 1-11.32 4.69z" fill="#f7cb07" opacity="1" data-original="#000000"></path></g></svg>